<svg xmlns="http://www.w3.org/2000/svg" width="61" height="36" fill="none" viewBox="0 0 61 36"><path fill="#fff" d="M.268 24.678c-.617-.556-.072-1.317.669-.885a59.9 59.9 0 0 0 29.844 7.904 59.2 59.2 0 0 0 22.682-4.693c1.111-.473 2.048.74.957 1.543-6.597 4.888-16.147 7.451-24.38 7.451A44.1 44.1 0 0 1 .268 24.678m49.027-.411c3.777-2.645 9.96-1.884 10.682-1.03.72.855-.195 7.091-3.725 10.055-.545.453-1.029.206-.823-.391.792-1.956 2.572-6.401 1.728-7.482-.844-1.08-5.568-.515-7.698-.258-.638.072-.74-.483-.164-.894M51.301 0q.677.001 1.349.092.654.078 1.296.227.605.138 1.132.308.435.146.844.35c.228.126.43.294.597.495.125.2.186.433.175.669v.946c0 .412-.155.628-.453.628a2.1 2.1 0 0 1-.772-.247 9.3 9.3 0 0 0-3.86-.772 5.2 5.2 0 0 0-2.665.566 1.92 1.92 0 0 0-.936 1.78 1.9 1.9 0 0 0 .587 1.421c.65.52 1.405.895 2.212 1.1l2.84.917a6.17 6.17 0 0 1 3.087 1.925c.613.803.94 1.788.927 2.798.011.81-.169 1.61-.525 2.336a5.34 5.34 0 0 1-1.451 1.77c-.664.511-1.418.891-2.223 1.122a10 10 0 0 1-2.83.38l.01.043a13.5 13.5 0 0 1-3.087-.35 9.3 9.3 0 0 1-2.305-.804 1.4 1.4 0 0 1-.618-.565 1.4 1.4 0 0 1-.123-.556V15.55c0-.422.155-.628.453-.628a.95.95 0 0 1 .37.072q.258.089.504.205c.71.315 1.452.55 2.213.7.782.164 1.578.247 2.377.248a5.43 5.43 0 0 0 2.933-.67 2.11 2.11 0 0 0 1.03-1.893 1.92 1.92 0 0 0-.546-1.4 5.2 5.2 0 0 0-2.059-1.029l-2.912-.905a6.18 6.18 0 0 1-3.2-2.058 4.7 4.7 0 0 1-1.03-2.903 4.5 4.5 0 0 1 .536-2.233c.365-.64.855-1.2 1.44-1.647A6.4 6.4 0 0 1 48.677.381 8.9 8.9 0 0 1 51.3.001M10.033 0q3.571 0 5.239 1.626a6.6 6.6 0 0 1 1.657 4.929l.03 6.515c-.005.604.09 1.205.278 1.78.168.5.385.984.649 1.441a.94.94 0 0 1 .134.452.75.75 0 0 1-.381.597l-1.266.845a1.03 1.03 0 0 1-.525.175.84.84 0 0 1-.597-.279 5.3 5.3 0 0 1-.72-.936c-.196-.34-.401-.73-.607-1.173a7.38 7.38 0 0 1-5.948 2.768 5.48 5.48 0 0 1-3.993-1.43 5.15 5.15 0 0 1-1.472-3.86 5.15 5.15 0 0 1 1.821-4.116 7.3 7.3 0 0 1 4.93-1.555q1.06.005 2.11.156 1.158.161 2.294.442V6.905a4.42 4.42 0 0 0-.936-3.21 4.6 4.6 0 0 0-3.262-.927 9.3 9.3 0 0 0-2.152.258q-1.106.265-2.16.689-.342.152-.7.257a1.1 1.1 0 0 1-.31 0c-.287 0-.421-.206-.421-.627v-1.03a1.3 1.3 0 0 1 .133-.596c.152-.184.347-.33.567-.423C5.232.906 6.077.6 6.946.381a12.2 12.2 0 0 1 3.087-.38m9.073.514a.43.43 0 0 1 .24-.01h2.008c.275-.027.552.042.782.195.204.218.343.49.401.783l3.365 13.245L28.98 1.533a1.38 1.38 0 0 1 .39-.782c.23-.173.515-.26.803-.247h1.605c.286-.026.572.042.814.195.208.213.342.488.38.783l3.16 13.379L39.6 1.533c.058-.293.197-.564.401-.782.223-.174.5-.261.782-.247h1.864a.432.432 0 0 1 .483.494q.015.154 0 .309a3 3 0 0 1-.145.494L38.128 17.31c-.064.295-.21.567-.422.782-.228.15-.5.219-.771.195h-1.72a1.28 1.28 0 0 1-.802-.206 1.53 1.53 0 0 1-.39-.812L30.935 4.384l-3.087 12.885a1.53 1.53 0 0 1-.392.812c-.237.156-.52.229-.803.206l-1.739.041a1.2 1.2 0 0 1-.771-.195 1.6 1.6 0 0 1-.422-.782L19.028 1.914a4 4 0 0 1-.175-.802.434.434 0 0 1 .253-.598M9.95 10.198a4.6 4.6 0 0 0-2.984.813 2.83 2.83 0 0 0-1.03 2.306 2.85 2.85 0 0 0 .731 2.12 2.88 2.88 0 0 0 2.172.678v.042a6.5 6.5 0 0 0 2.058-.37 4.37 4.37 0 0 0 1.883-1.277 3.2 3.2 0 0 0 .69-1.275c.133-.57.196-1.155.185-1.74v-.843a19 19 0 0 0-1.832-.33 15 15 0 0 0-1.873-.124"/></svg>